<?xml version="1.0" encoding="utf-8"?>
<!-- Generator: Adobe Illustrator 19.0.0, SVG Export Plug-In . SVG Version: 6.00 Build 0)  -->
<svg version="1.1" id="Capa_1" xmlns="http://www.w3.org/2000/svg" xmlns:xlink="http://www.w3.org/1999/xlink" x="0px" y="0px"
	 viewBox="-929 931 60 60" style="enable-background:new -929 931 60 60;" xml:space="preserve">
<style type="text/css">
	.st0{fill:#4191CF;}
</style>
<g>
	<path class="st0" d="M-869.3,987.6l-11.8-20.3c-0.4-0.7-1.1-1.1-1.9-1.1s-1.5,0.4-1.9,1.1l-11.8,20.3c-0.4,0.7-0.4,1.5,0,2.2
		s1.1,1.1,1.9,1.1h23.7c0.8,0,1.5-0.4,1.9-1.1C-868.9,989.2-868.9,988.3-869.3,987.6z M-871,988.9c0,0.1-0.1,0.1-0.2,0.1h-23.7
		c-0.1,0-0.2-0.1-0.2-0.1s-0.1-0.1,0-0.2l11.8-20.3c0.1-0.1,0.1-0.1,0.2-0.1c0.1,0,0.1,0,0.2,0.1l11.8,20.3
		C-871,988.7-871,988.8-871,988.9z"/>
	<path class="st0" d="M-883,973c-0.6,0-1,0.4-1,1v8c0,0.6,0.4,1,1,1s1-0.4,1-1v-8C-882,973.4-882.4,973-883,973z"/>
	<path class="st0" d="M-883.7,985.3c-0.2,0.2-0.3,0.4-0.3,0.7c0,0.3,0.1,0.5,0.3,0.7c0.2,0.2,0.5,0.3,0.7,0.3s0.5-0.1,0.7-0.3
		c0.2-0.2,0.3-0.5,0.3-0.7c0-0.3-0.1-0.5-0.3-0.7C-882.7,984.9-883.3,984.9-883.7,985.3z"/>
	<path class="st0" d="M-918.5,937c-2.5,0-4.5,2-4.5,4.5c0,2.5,2,4.5,4.5,4.5s4.5-2,4.5-4.5C-914,939-916,937-918.5,937z M-918.5,944
		c-1.4,0-2.5-1.1-2.5-2.5c0-1.4,1.1-2.5,2.5-2.5s2.5,1.1,2.5,2.5C-916,942.9-917.1,944-918.5,944z"/>
	<circle class="st0" cx="-879" cy="940" r="1"/>
	<circle class="st0" cx="-883" cy="940" r="1"/>
	<circle class="st0" cx="-877" cy="943" r="1"/>
	<circle class="st0" cx="-881" cy="943" r="1"/>
	<circle class="st0" cx="-887" cy="940" r="1"/>
	<circle class="st0" cx="-885" cy="943" r="1"/>
	<circle class="st0" cx="-891" cy="940" r="1"/>
	<circle class="st0" cx="-889" cy="943" r="1"/>
	<circle class="st0" cx="-895" cy="940" r="1"/>
	<circle class="st0" cx="-893" cy="943" r="1"/>
	<path class="st0" d="M-923,960.5c0,2.5,2,4.5,4.5,4.5s4.5-2,4.5-4.5c0-2.5-2-4.5-4.5-4.5S-923,958-923,960.5z M-916,960.5
		c0,1.4-1.1,2.5-2.5,2.5s-2.5-1.1-2.5-2.5c0-1.4,1.1-2.5,2.5-2.5S-916,959.1-916,960.5z"/>
	<circle class="st0" cx="-879" cy="959" r="1"/>
	<circle class="st0" cx="-883" cy="959" r="1"/>
	<circle class="st0" cx="-877" cy="962" r="1"/>
	<circle class="st0" cx="-881" cy="962" r="1"/>
	<circle class="st0" cx="-887" cy="959" r="1"/>
	<circle class="st0" cx="-885" cy="962" r="1"/>
	<circle class="st0" cx="-891" cy="959" r="1"/>
	<circle class="st0" cx="-889" cy="962" r="1"/>
	<circle class="st0" cx="-895" cy="959" r="1"/>
	<circle class="st0" cx="-893" cy="962" r="1"/>
	<path class="st0" d="M-923,979.5c0,2.5,2,4.5,4.5,4.5s4.5-2,4.5-4.5c0-2.5-2-4.5-4.5-4.5S-923,977-923,979.5z M-916,979.5
		c0,1.4-1.1,2.5-2.5,2.5s-2.5-1.1-2.5-2.5c0-1.4,1.1-2.5,2.5-2.5S-916,978.1-916,979.5z"/>
	<path class="st0" d="M-927,985.4v-11.8c0-1.4,1.2-2.6,2.6-2.6h33.4v-2h-33.4c-1.4,0-2.6-1.2-2.6-2.6v-11.8c0-1.4,1.2-2.6,2.6-2.6
		h50.8c1.4,0,2.6,1.2,2.6,2.6V969h2v-14.4c0-1.5-0.7-2.8-1.8-3.6c1.1-0.8,1.8-2.1,1.8-3.6v-11.8c0-2.5-2.1-4.6-4.6-4.6h-50.8
		c-2.5,0-4.6,2.1-4.6,4.6v11.8c0,1.5,0.7,2.8,1.8,3.6c-1.1,0.8-1.8,2.1-1.8,3.6v11.8c0,1.5,0.7,2.8,1.8,3.6
		c-1.1,0.8-1.8,2.1-1.8,3.6v11.8c0,2.5,2.1,4.6,4.6,4.6h23.4v-2h-23.4C-925.8,988-927,986.8-927,985.4z M-927,947.4v-11.8
		c0-1.4,1.2-2.6,2.6-2.6h50.8c1.4,0,2.6,1.2,2.6,2.6v11.8c0,1.4-1.2,2.6-2.6,2.6h-50.8C-925.8,950-927,948.8-927,947.4z"/>
</g>
</svg>
